# xmcd
# 
# Track frame offsets:
#     150
#     19948
#     43840
#     61724
#     79319
#     97646
#     112825
#     127718
#     152269
#     167794
#     184571
#     202334
#     218589
#     240558
#     255593
#     271404
#     288271
#     306898
#     324589
#     344141
# 
# Disc length: 4795
# 
# Revision: 1
# Processed by: cddbd v1.5.2PL0 Copyright (c) Steve Scherf et al.
# Submitted via: fre:ac v1.1beta1
# 
DISCID=0f12b914
DTITLE=Various Artist - 11
DYEAR=466
DGENRE=Dream
TTITLE0=111 - 11
TTITLE1=4t - 22
TTITLE2=12 - 33
TTITLE3=gb - 44
TTITLE4=gb - 55
TTITLE5=bbd - 66
TTITLE6=bb - 77
TTITLE7=nt - 88
TTITLE8=mj - 99
TTITLE9=jgd - 00
TTITLE10=j,dj - 111
TTITLE11=dk. - 222
TTITLE12=f.l - 333
TTITLE13=dghs - 444
TTITLE14=mshtsh - 555
TTITLE15=mdghms - 666
TTITLE16=zdzh - 777
TTITLE17=hjrsry - 888
TTITLE18=fhxgc - 999
TTITLE19=1 - 000
EXTD=
EXTT0=
EXTT1=
EXTT2=
EXTT3=
EXTT4=
EXTT5=
EXTT6=
EXTT7=
EXTT8=
EXTT9=
EXTT10=
EXTT11=
EXTT12=
EXTT13=
EXTT14=
EXTT15=
EXTT16=
EXTT17=
EXTT18=
EXTT19=
PLAYORDER=
